<svg width="68" height="21" fill="none" xmlns="http://www.w3.org/2000/svg"><path d="M13.3636 0v20.0455h-3.2931V5.8227L8.9727 7.2068 6.825 9.975l-.0955.0955-.1431-.0955-2.1478-2.7682L3.341 5.775v14.2705H0V0h3.341l3.3885 4.2954L10.0705 0h3.2931zM8.3044 10.0704L8.209 9.975l.0954.0954z" fill="#0AD9C6"/><path d="M8.4479 9.975l-.0955.0954h-.0477l.1432-.0954zM38.2092 5.6145l-9.1269 6.7015 2.1132 2.878 9.1269-6.7015-2.1132-2.878z" fill="#0AD9C6"/><path d="M26.6674 3c-3.8639 0-7.0431 3.1303-7.0431 7.0431 0 3.864 3.1303 7.0432 7.0431 7.0432 3.8639 0 7.0431-3.1303 7.0431-7.0432C33.7105 6.1791 30.5313 3 26.6674 3zm0 10.2712c-1.8097 0-3.2281-1.4673-3.2281-3.2281 0-1.8097 1.4673-3.228 3.2281-3.228s3.2281 1.4672 3.2281 3.228c0 1.7608-1.4673 3.2281-3.2281 3.2281zM43.6396 3c-3.864 0-7.0432 3.1303-7.0432 7.0431 0 3.864 3.1303 7.0432 7.0432 7.0432 3.8639 0 7.0431-3.1303 7.0431-7.0432C50.6338 6.1791 47.5035 3 43.6396 3zm0 10.2712c-1.8097 0-3.2281-1.4673-3.2281-3.2281 0-1.8097 1.4673-3.228 3.2281-3.228s3.2281 1.4672 3.2281 3.228c0 1.7608-1.4673 3.2281-3.2281 3.2281zM67.5977.2386v20.0455h-3.3409V9.8796l-2.8159-2.6728-2.1-2.0522V20.284H56V.2386h3.3409l3.9136 3.7705 1.0023.9546V.2387h3.3409z" fill="#0AD9C6"/></svg>