<svg width="26" height="20" fill="none" xmlns="http://www.w3.org/2000/svg"><path d="M24.2273 0H1.7727C.7682 0 0 .7647 0 1.7647v16.4706C0 19.2353.7682 20 1.7727 20h22.4546C25.2318 20 26 19.2353 26 18.2353V1.7647C26 .7647 25.2318 0 24.2273 0zm0 17l-4.6682-4.6471c-.3546-.3529-.8864-.3529-1.2409 0-.3546.353-.3546.8824 0 1.2353l4.6682 4.6471H3.0136l4.6682-4.6471c.3546-.3529.3546-.8823 0-1.2353-.3545-.3529-.8863-.3529-1.2409 0L1.7727 17V5.7058l10.6364 8.0001c.1773.1177.3545.1764.5318.1764.1773 0 .3545-.0587.5318-.1764l10.7546-8V17zm0-15.2353v1.7059l-11.2864 8.3529L1.7727 3.4706V1.7647h22.4546z" fill="#0AD9C6"/></svg>