<svg width="22" height="24" fill="none" xmlns="http://www.w3.org/2000/svg"><path d="M3.4564 6.6243c-.0846-1.198.1812-2.3782.8848-3.3275.61-.8605 1.4042-1.3304 2.3615-1.605.8063-.2393 1.3347.0538 1.5673.9502.3322 1.3402.8063 2.6805.9784 4.0916.0544.6212-.3473 1.4996-.7821 1.952-1.0902 1.0733-.8637 1.8543-.0362 3.4787.2567.5238.6643 1.4291 1.4585 2.6276.8275 1.2073 1.2653 1.8553 2.3283 1.3056 1.1808-.594 2.0414-.212 2.9323.7469.6039.6925 1.2683 1.2874 1.8723 1.9799.8727 1.0299.8334 1.7398.151 2.4672-1.2291 1.3394-3.2584 1.7821-4.7683.8851-.8335-.4885-1.664-1.1279-2.3253-1.8736-2.9141-3.3205-5.016-7.1818-6.2813-11.5398-.2023-.7367-.2959-1.4822-.3412-2.1389z" stroke="#0AD9C6" stroke-width="2" stroke-miterlimit="10"/></svg>