<svg xmlns="http://www.w3.org/2000/svg" xmlns:xlink="http://www.w3.org/1999/xlink"><symbol id="arrow-next"><path fill-rule="evenodd" clip-rule="evenodd" d="M0 1.4L4.6 6 0 10.6 1.4 12l6-6-6-6L0 1.4z" fill="#2C2E3F" fill-opacity=".5"/></symbol><symbol id="BtnClosed"><path d="M1 23.7213L23 1m0 22.7213L1 1" stroke="#141517" stroke-opacity=".2" stroke-linecap="round" stroke-linejoin="round"/></symbol><symbol id="Logotype"><path d="M13.3636 0v20.0455h-3.2931V5.8227L8.9727 7.2068 6.825 9.975l-.0955.0955-.1431-.0955-2.1478-2.7682L3.341 5.775v14.2705H0V0h3.341l3.3885 4.2954L10.0705 0h3.2931zM8.3044 10.0704L8.209 9.975l.0954.0954z" fill="#0AD9C6"/><path d="M8.4479 9.975l-.0955.0954h-.0477l.1432-.0954zM38.2092 5.6145l-9.1269 6.7015 2.1132 2.878 9.1269-6.7015-2.1132-2.878z" fill="#0AD9C6"/><path d="M26.6674 3c-3.8639 0-7.0431 3.1303-7.0431 7.0431 0 3.864 3.1303 7.0432 7.0431 7.0432 3.8639 0 7.0431-3.1303 7.0431-7.0432C33.7105 6.1791 30.5313 3 26.6674 3zm0 10.2712c-1.8097 0-3.2281-1.4673-3.2281-3.2281 0-1.8097 1.4673-3.228 3.2281-3.228s3.2281 1.4672 3.2281 3.228c0 1.7608-1.4673 3.2281-3.2281 3.2281zM43.6396 3c-3.864 0-7.0432 3.1303-7.0432 7.0431 0 3.864 3.1303 7.0432 7.0432 7.0432 3.8639 0 7.0431-3.1303 7.0431-7.0432C50.6338 6.1791 47.5035 3 43.6396 3zm0 10.2712c-1.8097 0-3.2281-1.4673-3.2281-3.2281 0-1.8097 1.4673-3.228 3.2281-3.228s3.2281 1.4672 3.2281 3.228c0 1.7608-1.4673 3.2281-3.2281 3.2281zM67.5977.2386v20.0455h-3.3409V9.8796l-2.8159-2.6728-2.1-2.0522V20.284H56V.2386h3.3409l3.9136 3.7705 1.0023.9546V.2387h3.3409z" fill="#0AD9C6"/></symbol><symbol id="mail"><path d="M24.2273 0H1.7727C.7682 0 0 .7647 0 1.7647v16.4706C0 19.2353.7682 20 1.7727 20h22.4546C25.2318 20 26 19.2353 26 18.2353V1.7647C26 .7647 25.2318 0 24.2273 0zm0 17l-4.6682-4.6471c-.3546-.3529-.8864-.3529-1.2409 0-.3546.353-.3546.8824 0 1.2353l4.6682 4.6471H3.0136l4.6682-4.6471c.3546-.3529.3546-.8823 0-1.2353-.3545-.3529-.8863-.3529-1.2409 0L1.7727 17V5.7058l10.6364 8.0001c.1773.1177.3545.1764.5318.1764.1773 0 .3545-.0587.5318-.1764l10.7546-8V17zm0-15.2353v1.7059l-11.2864 8.3529L1.7727 3.4706V1.7647h22.4546z" fill="#0AD9C6"/></symbol><symbol id="phone"><path d="M3.4564 6.6243c-.0846-1.198.1812-2.3782.8848-3.3275.61-.8605 1.4042-1.3304 2.3615-1.605.8063-.2393 1.3347.0538 1.5673.9502.3322 1.3402.8063 2.6805.9784 4.0916.0544.6212-.3473 1.4996-.7821 1.952-1.0902 1.0733-.8637 1.8543-.0362 3.4787.2567.5238.6643 1.4291 1.4585 2.6276.8275 1.2073 1.2653 1.8553 2.3283 1.3056 1.1808-.594 2.0414-.212 2.9323.7469.6039.6925 1.2683 1.2874 1.8723 1.9799.8727 1.0299.8334 1.7398.151 2.4672-1.2291 1.3394-3.2584 1.7821-4.7683.8851-.8335-.4885-1.664-1.1279-2.3253-1.8736-2.9141-3.3205-5.016-7.1818-6.2813-11.5398-.2023-.7367-.2959-1.4822-.3412-2.1389z" stroke="#0AD9C6" stroke-width="2" stroke-miterlimit="10"/></symbol><symbol id="Play-Icon"><path fill-rule="evenodd" clip-rule="evenodd" d="M.6001.3999l13 9.1-13 9.1v-18.2z" fill="#070707"/></symbol></svg>